<svg copyright="Minxi Wan"
  xmlns="http://www.w3.org/2000/svg"
  xmlns:xlink="http://www.w3.org/1999/xlink"
  width="18px" height="23px">
  <path fill-rule="evenodd"  fill="rgba(0, 0, 0, 0.2)"
        d="M0.200,20.800 L0.200,11.200 C0.213,10.674 0.428,10.172 0.800,9.800 C1.172,9.428 1.674,9.213 2.200,9.200 C6.733,9.200 11.267,9.200 15.800,9.200 C16.326,9.213 16.828,9.428 17.200,9.800 C17.572,10.172 17.787,10.674 17.800,11.200 C17.800,14.400 17.800,17.600 17.800,20.800 C17.787,21.326 17.572,21.828 17.200,22.200 C16.828,22.572 16.326,22.787 15.800,22.800 C11.267,22.800 6.733,22.800 2.200,22.800 C1.674,22.787 1.172,22.572 0.800,22.200 C0.428,21.828 0.213,21.326 0.200,20.800 Z"/>
  <path fill-rule="evenodd"  fill="rgba(0, 0, 0, 0.2)"
        d="M3.000,9.200 L5.000,9.200 L5.000,6.400 L3.000,6.400 L3.000,9.200 Z"/>
  <path fill-rule="evenodd"  fill="rgba(0, 0, 0, 0.2)"
        d="M3.000,6.400 L5.000,6.400 C5.044,5.410 5.473,4.475 6.200,3.800 C6.957,3.097 7.970,2.738 9.000,2.800 C10.125,2.748 11.029,2.970 11.800,3.800 C12.409,4.456 12.955,5.507 13.000,6.400 C13.667,6.400 14.333,6.400 15.000,6.400 C14.944,4.884 14.299,3.447 13.200,2.400 C12.071,1.325 10.557,0.751 9.000,0.800 C7.443,0.751 5.929,1.325 4.800,2.400 C3.701,3.447 3.056,4.884 3.000,6.400 Z"/>
  <path fill-rule="evenodd"  fill="rgba(0, 0, 0, 0.2)"
        d="M13.000,6.400 L15.000,6.400 L15.000,9.200 L13.000,9.200 L13.000,6.400 Z"/>
</svg>
